<svg width="33" height="33" viewBox="0 0 33 33" fill="none" xmlns="http://www.w3.org/2000/svg">
<g clip-path="url(#clip0)">
<path d="M1.85585 -0.00346983L1.83782 -0.0982389C1.66175 -0.0647515 1.50318 0.0298833 1.39012 0.168949C1.27725 0.307779 1.21699 0.481971 1.21993 0.660849V24.42C1.21993 24.8382 1.5617 25.18 1.97993 25.18H21.4955L30.5214 32.9105C30.5215 32.9106 30.5216 32.9107 30.5217 32.9108C30.7476 33.1068 31.0616 33.1503 31.3338 33.0293L31.3343 33.0291C31.4669 32.9692 31.5795 32.8724 31.6585 32.7502C31.7375 32.628 31.7797 32.4857 31.7799 32.3402V32.34V0.66C31.7799 0.241772 31.4382 -0.1 31.0199 -0.1H1.85651H1.85585V-0.00346983ZM21.78 23.66H21.7799H2.73993V1.42H30.2599V30.6994L22.2794 23.8503C22.2791 23.8501 22.2789 23.8499 22.2786 23.8496C22.1412 23.7276 21.9638 23.6602 21.78 23.66ZM11.507 14.8945C11.1141 14.7162 10.6464 14.5629 10.0975 14.4818C11.188 14.1198 11.9799 13.0881 11.9799 11.88C11.9799 10.3728 10.7472 9.14 9.23993 9.14C7.7327 9.14 6.49993 10.3728 6.49993 11.88C6.49993 13.0855 7.28847 14.1154 8.37531 14.4794C7.40064 14.6184 6.65659 14.9868 6.14223 15.4346C5.49113 16.0013 5.17993 16.591 5.17993 17.222V17.82C5.17993 18.2382 5.5217 18.58 5.93993 18.58H27.0599C27.4782 18.58 27.8199 18.2382 27.8199 17.82V17.222C27.8199 16.591 27.5087 16.0013 26.8576 15.4346C26.3433 14.9868 25.5992 14.6184 24.6246 14.4794C25.7114 14.1153 26.4999 13.0855 26.4999 11.88C26.4999 10.3728 25.2672 9.14 23.7599 9.14C22.2527 9.14 21.0199 10.3728 21.0199 11.88C21.0199 13.088 21.8119 14.1198 22.9023 14.4818C22.3533 14.5629 21.8854 14.7161 21.4929 14.8944C21.3496 14.7483 21.1977 14.6109 21.0379 14.4829L21.0371 14.4822C20.0565 13.7129 18.5625 13.1 16.4999 13.1C14.4374 13.1 12.9434 13.7122 11.9627 14.4829L11.962 14.4835C11.8022 14.6113 11.6503 14.7485 11.507 14.8945ZM21.0967 16.7999C21.1113 16.849 21.1178 16.8813 21.1194 16.8898C21.1197 16.8911 21.1199 16.8919 21.1199 16.892H21.0199L21.0202 16.8849C21.0205 16.8815 21.0219 16.8725 21.0232 16.8668C21.0269 16.8552 21.0503 16.8203 21.0747 16.8029C21.0816 16.8011 21.089 16.8002 21.0967 16.7999ZM21.0151 16.881C21.0173 16.8901 21.0189 16.8973 21.0199 16.9022V17.06H11.9799V16.9021C11.981 16.8971 11.9825 16.8899 11.9847 16.8806C11.9896 16.8602 11.9978 16.8295 12.0104 16.7912C12.0358 16.7144 12.0792 16.6074 12.1508 16.49L12.1509 16.4898C12.2968 16.2494 12.5397 15.9472 12.8907 15.6712C13.592 15.1221 14.7359 14.62 16.4999 14.62C18.2639 14.62 19.4072 15.1221 20.1099 15.6713C20.46 15.9471 20.7023 16.2492 20.8489 16.4898C20.9203 16.6077 20.9637 16.7148 20.9892 16.7915C21.0019 16.8299 21.0101 16.8605 21.0151 16.881ZM11.9799 16.892H11.8799C11.88 16.8919 11.8801 16.8912 11.8804 16.8899C11.882 16.8815 11.8883 16.8491 11.903 16.7998C11.9104 16.8 11.9177 16.8009 11.9244 16.8025C11.9494 16.8202 11.973 16.8556 11.9768 16.8672C11.9781 16.8728 11.9794 16.8817 11.9797 16.885L11.9799 16.892ZM9.23993 15.94C9.81182 15.94 10.2515 16.0333 10.6118 16.1642C10.5147 16.4 10.4599 16.6393 10.4599 16.892V17.06H6.78535C6.79511 17.0367 6.80673 17.0109 6.8206 16.9832C6.87817 16.8682 6.97513 16.7188 7.14007 16.5755L7.14026 16.5753C7.50629 16.2555 8.13922 15.94 9.23993 15.94ZM25.8596 16.5753L25.8598 16.5755C26.0247 16.7188 26.1217 16.8682 26.1793 16.9832C26.1931 17.0109 26.2047 17.0367 26.2145 17.06H22.5399V16.892C22.5399 16.639 22.4845 16.4002 22.3879 16.1642C22.7482 16.0333 23.1879 15.94 23.7599 15.94C24.8613 15.94 25.4936 16.2555 25.8596 16.5753ZM16.4999 5.18C14.6297 5.18 13.0999 6.70977 13.0999 8.58C13.0999 10.4502 14.6297 11.98 16.4999 11.98C18.3702 11.98 19.8999 10.4502 19.8999 8.58C19.8999 6.70977 18.3702 5.18 16.4999 5.18ZM16.4999 6.7C17.5456 6.7 18.3799 7.53435 18.3799 8.58C18.3799 9.62565 17.5456 10.46 16.4999 10.46C15.4543 10.46 14.6199 9.62565 14.6199 8.58C14.6199 7.53435 15.4543 6.7 16.4999 6.7ZM9.23993 10.66C9.92192 10.66 10.4599 11.198 10.4599 11.88C10.4599 12.562 9.92192 13.1 9.23993 13.1C8.55794 13.1 8.01993 12.562 8.01993 11.88C8.01993 11.198 8.55794 10.66 9.23993 10.66ZM23.7599 10.66C24.4419 10.66 24.9799 11.198 24.9799 11.88C24.9799 12.562 24.4419 13.1 23.7599 13.1C23.0779 13.1 22.5399 12.562 22.5399 11.88C22.5399 11.198 23.0779 10.66 23.7599 10.66Z" fill="black" stroke="black" stroke-width="0.2"/>
</g>
<defs>
<clipPath id="clip0">
<rect width="33" height="33" fill="white"/>
</clipPath>
</defs>
</svg>
