<svg xmlns="http://www.w3.org/2000/svg" viewBox="0 0 38 30"><defs><style>.cls-1{fill:gray;stroke:gray;stroke-miterlimit:10;stroke-width:0.2px;}</style></defs><g id="Calque_4" data-name="Calque 4"><path class="cls-1" d="M25.48,5.91,19.3,2.34a.28.28,0,0,0-.28,0L12.83,5.91a.29.29,0,0,0-.14.24V24.77a.28.28,0,0,0,.28.28.27.27,0,0,0,.28-.28V6.32l5.91-3.41,5.9,3.41V24.77a.28.28,0,0,0,.28.28.27.27,0,0,0,.28-.28V6.15A.27.27,0,0,0,25.48,5.91Z"/><path class="cls-1" d="M19.16,2.3a.28.28,0,0,0-.28.28V24.77a.27.27,0,0,0,.28.28.28.28,0,0,0,.28-.28V2.58A.29.29,0,0,0,19.16,2.3Z"/><path class="cls-1" d="M34.7,11.39,28.79,7.82a.28.28,0,0,0-.28,0l-3.3,1.89a.29.29,0,0,0-.1.39.28.28,0,0,0,.38.1l3.16-1.82,5.63,3.41v13a.29.29,0,0,0,.28.28.28.28,0,0,0,.28-.28V11.63A.27.27,0,0,0,34.7,11.39Z"/><path class="cls-1" d="M28.65,7.78a.28.28,0,0,0-.28.28V24.77a.28.28,0,0,0,.28.28.29.29,0,0,0,.28-.28V8.06A.29.29,0,0,0,28.65,7.78Z"/><path class="cls-1" d="M33.74,13.52l-3.63-2.1a.28.28,0,0,0-.28.49L33.46,14a.35.35,0,0,0,.14,0,.28.28,0,0,0,.14-.52Z"/><path class="cls-1" d="M33.74,16.41l-3.63-2.1a.28.28,0,0,0-.28.49l3.63,2.1a.35.35,0,0,0,.14,0,.28.28,0,0,0,.14-.52Z"/><path class="cls-1" d="M33.74,19.3l-3.63-2.1a.28.28,0,0,0-.28.49l3.63,2.1a.35.35,0,0,0,.14,0,.28.28,0,0,0,.14-.52Z"/><path class="cls-1" d="M33.74,22.19l-3.63-2.1a.28.28,0,0,0-.28.49l3.63,2.1a.35.35,0,0,0,.14,0,.28.28,0,0,0,.14-.52Z"/><path class="cls-1" d="M13.08,12.61l-1.95-1.12a.28.28,0,1,0-.28.48l1.94,1.13.14,0a.29.29,0,0,0,.25-.14A.28.28,0,0,0,13.08,12.61Z"/><path class="cls-1" d="M13.08,15.77l-1.95-1.12a.28.28,0,0,0-.38.1.29.29,0,0,0,.1.39l1.94,1.12a.43.43,0,0,0,.14,0,.29.29,0,0,0,.25-.14A.29.29,0,0,0,13.08,15.77Z"/><path class="cls-1" d="M13.08,18.94l-1.95-1.13a.28.28,0,0,0-.28.49l1.94,1.12a.27.27,0,0,0,.14,0,.29.29,0,0,0,.25-.14A.28.28,0,0,0,13.08,18.94Z"/><path class="cls-1" d="M13.08,22.1,11.13,21a.28.28,0,0,0-.28.48l1.94,1.13.14,0a.29.29,0,0,0,.25-.14A.28.28,0,0,0,13.08,22.1Z"/><path class="cls-1" d="M24.35,8.1,20.72,6a.29.29,0,0,0-.39.1.29.29,0,0,0,.11.39l3.63,2.09a.23.23,0,0,0,.14,0,.28.28,0,0,0,.14-.52Z"/><path class="cls-1" d="M24.35,10.94,20.72,8.85a.29.29,0,0,0-.39.1.28.28,0,0,0,.11.38l3.63,2.1a.23.23,0,0,0,.14,0,.28.28,0,0,0,.24-.14A.29.29,0,0,0,24.35,10.94Z"/><path class="cls-1" d="M24.35,13.79l-3.63-2.1a.29.29,0,0,0-.39.11.28.28,0,0,0,.11.38l3.63,2.1a.32.32,0,0,0,.14,0,.28.28,0,0,0,.14-.52Z"/><path class="cls-1" d="M24.35,16.64l-3.63-2.1a.29.29,0,0,0-.39.1.29.29,0,0,0,.11.39l3.63,2.09a.23.23,0,0,0,.14,0,.28.28,0,0,0,.24-.14A.27.27,0,0,0,24.35,16.64Z"/><path class="cls-1" d="M24.35,19.48l-3.63-2.1a.29.29,0,0,0-.39.11.28.28,0,0,0,.11.38L24.07,20a.33.33,0,0,0,.14,0,.29.29,0,0,0,.24-.15A.28.28,0,0,0,24.35,19.48Z"/><path class="cls-1" d="M24.35,22.33l-3.63-2.1a.29.29,0,0,0-.39.1.29.29,0,0,0,.11.39l3.63,2.09a.23.23,0,0,0,.14,0,.28.28,0,0,0,.24-.14A.28.28,0,0,0,24.35,22.33Z"/><path class="cls-1" d="M13,9.71,9.72,7.82a.28.28,0,0,0-.28,0L3.26,11.39a.27.27,0,0,0-.14.24V24.75A.28.28,0,0,0,3.4,25a.29.29,0,0,0,.28-.28v-13l5.9-3.41,3.16,1.82a.28.28,0,0,0,.38-.1A.29.29,0,0,0,13,9.71Z"/><path class="cls-1" d="M9.58,8.16c-.16,0-.16.16-.28-.1V24.77a.29.29,0,0,0,.28.28.28.28,0,0,0,.28-.28V8.06C10,8.37,9.73,8.16,9.58,8.16Z"/><path class="cls-1" d="M16.14,6.77a.27.27,0,0,0-.28.28v17.7a.28.28,0,0,0,.28.28.29.29,0,0,0,.28-.28V7.05A.28.28,0,0,0,16.14,6.77Z"/><path class="cls-1" d="M6.43,12.35a.28.28,0,0,0-.28.28v12.1a.28.28,0,0,0,.28.28.29.29,0,0,0,.28-.28V12.63A.29.29,0,0,0,6.43,12.35Z"/><path class="cls-1" d="M13,24.23H1.1c-.15.26-.28.39-.28.54a.28.28,0,0,0,.28.28H13a.27.27,0,0,0,.28-.28C13.25,24.62,13.13,24.49,13,24.23Z"/><path class="cls-1" d="M37.21,24.23H25.34c-.15.26-.28.39-.28.54a.28.28,0,0,0,.28.28H37.21a.28.28,0,0,0,.29-.28C37.5,24.62,37.37,24.49,37.21,24.23Z"/><path class="cls-1" d="M37,27.82H.85a.29.29,0,0,0-.28.28.28.28,0,0,0,.28.28H37a.27.27,0,0,0,.28-.28A.28.28,0,0,0,37,27.82Z"/></g></svg>
