<svg xmlns="http://www.w3.org/2000/svg" viewBox="0 0 25 25"><defs><style>.cls-1,.cls-2{fill:none;stroke:gray;stroke-linecap:round;stroke-linejoin:round;}.cls-1{stroke-width:0.98px;}.cls-3{fill:gray;}</style></defs><title>icon-cloud</title><g id="Calque_4" data-name="Calque 4"><path class="cls-1" d="M24.5,5.5c0,.93-2.48,2-5.52,2s-5.48-1.07-5.48-2S16,3.5,19,3.5,24.5,4.57,24.5,5.5Z"/><path class="cls-1" d="M24.5,9c0,.93-2.42,1.54-5.46,1.54S13.5,9.93,13.5,9"/><path class="cls-2" d="M24.5,12c0,.93-2.33,1.47-5.5,1.47-1.58,0-4.5,0-5.25-.71"/><path class="cls-2" d="M24.53,15.08c0,.88-3.2,1.5-5.2,1.5"/><line class="cls-2" x1="13.5" y1="12.44" x2="13.5" y2="5.5"/><line class="cls-2" x1="24.5" y1="15.5" x2="24.5" y2="5.5"/><path class="cls-3" d="M10.42,11.5a4,4,0,0,1,4,3.75,1,1,0,0,0,.45.78,1,1,0,0,0,.55.16,1,1,0,0,0,.34-.06,2,2,0,0,1,.69-.13,2,2,0,0,1,0,4l-.3,0H16a.86.86,0,0,0-.28,0H3.92a2,2,0,0,1,0-4,2,2,0,0,1,1,.28,1,1,0,0,0,.5.14,1,1,0,0,0,.49-.13,1,1,0,0,0,.51-.85,4,4,0,0,1,4-3.94m0-1a5,5,0,0,0-5,4.92A2.94,2.94,0,0,0,3.92,15a3,3,0,0,0,0,6H16v0a3.13,3.13,0,0,0,.44,0,3,3,0,0,0,0-6,2.9,2.9,0,0,0-1,.19,5,5,0,0,0-5-4.69Z"/></g></svg>
