<svg id="Calque_1" data-name="Calque 1" xmlns="http://www.w3.org/2000/svg" viewBox="0 0 25 25"><defs><style>.cls-1,.cls-3{fill:none;stroke:gray;stroke-linecap:round;stroke-linejoin:round;}.cls-2{fill:gray;}.cls-3{stroke-width:0.53px;}</style></defs><title>icon-about-us</title><path class="cls-1" d="M6.67,24.51a1.32,1.32,0,0,1-.38.13,1.38,1.38,0,0,1-1.57-1.06S2.5,11.79,2.5,9.37C2.5,4.33,6.3.5,11.94.5S21.5,4.33,21.5,9.37C21.5,11.79,19,23.58,19,23.58a1.38,1.38,0,0,1-1.57,1.06,1.5,1.5,0,0,1-.42-.15"/><path class="cls-2" d="M18.7,19.74c-.1,1.14-.29,2.27-.44,3.4l-.07.42a2.09,2.09,0,0,1-.17.54,1.86,1.86,0,0,1-3,.55.5.5,0,0,1,.69-.73.91.91,0,0,0,1,.12.9.9,0,0,0,.37-.38.93.93,0,0,0,.08-.28l.08-.42c.25-1.11.47-2.23.77-3.34a.34.34,0,0,1,.66.12Z"/><path class="cls-1" d="M13.38,8.5c0,2.38-2.5,4-4.88,4a3.82,3.82,0,0,1-4-4,3.89,3.89,0,0,1,4-4.1C10.88,4.38,13.38,6.12,13.38,8.5Z"/><path class="cls-2" d="M9.48,5.66c-.74.15-.89,1.78-.44,2.23.29.29.9.34.9.55s-.61.34-.9.64c-.45.44-.3,2.07.44,2.22s2.23-.89,2.23-2.82S10.37,5.49,9.48,5.66Z"/><path class="cls-3" d="M6.51,15.38c.15.44.77,1.46,1.37,1.31.28-.07.4-.72.4-1.31"/><path class="cls-3" d="M10.37,14.91c.15.59.4,1.43.85,1.43s1.37-1.15,1.22-2.18"/><path class="cls-2" d="M5.68,14.71a11.2,11.2,0,0,0,8-1.93.5.5,0,0,1,.7.12.51.51,0,0,1-.12.7h0a12,12,0,0,1-8.66,1.93.41.41,0,0,1,.12-.82Z"/><path class="cls-2" d="M14.18,13.59l-.27-.79a.11.11,0,0,1,0-.05v-.08h0s0,0,0-.1a.32.32,0,0,1,.11-.17.39.39,0,0,1,.39-.09.37.37,0,0,1,.21.17l0,0h0l0,.08,0,.06,0,.09,0,.21,0,.07v.06s0,.06,0,.1l0,.07s0,0,0,.08a.44.44,0,0,1-.38.21c-.35-.08-.22-.1-.27-.11l0,0a.21.21,0,0,1-.06-.08h0l0,0-.08-.08a.6.6,0,0,0-.4-.15.51.51,0,0,1,0-1h.13a1.64,1.64,0,0,1,.91.52,1.07,1.07,0,0,1,.15.22l0,0,0,0,0-.06,0,0s.08,0-.26-.1a.42.42,0,0,0-.38.2c0,.1,0,.06,0,.08L14,13a.19.19,0,0,0,0,.08h0v0l0-.16,0-.08v0h0v0s0,.08.21.17a.39.39,0,0,0,.39-.08.33.33,0,0,0,.11-.18l0-.1h0v-.09l.15.82a.33.33,0,0,1-.64.18Z"/><path class="cls-2" d="M8.67,24.65a1.88,1.88,0,0,1-3-.54,2.57,2.57,0,0,1-.17-.54l-.07-.43C5.3,22,5.11,20.88,5,19.74a.33.33,0,0,1,.65-.12c.3,1.11.52,2.23.77,3.35l.08.42a1,1,0,0,0,.08.27A.89.89,0,0,0,8,23.92a.5.5,0,0,1,.69.73Z"/><path class="cls-2" d="M11,24.22a1.86,1.86,0,0,1-3.15.15,1.71,1.71,0,0,1-.27-.56c0-.1,0-.2-.07-.3l0-.23c-.09-1.22-.21-2.43-.24-3.66a.33.33,0,0,1,.66-.07c.24,1.2.39,2.41.57,3.61l0,.23,0,.14a1.19,1.19,0,0,0,.13.25.83.83,0,0,0,.46.32.9.9,0,0,0,1-.38.49.49,0,0,1,.69-.16A.51.51,0,0,1,11,24.22Z"/><path class="cls-2" d="M16.48,19.62c0,1.22-.15,2.43-.24,3.65l0,.22a1.55,1.55,0,0,1-.06.31,2.2,2.2,0,0,1-.26.56,2,2,0,0,1-1,.73,1.85,1.85,0,0,1-2.16-.85h0a.49.49,0,0,1,.2-.67.5.5,0,0,1,.66.17.9.9,0,0,0,1,.37.92.92,0,0,0,.46-.32,1.23,1.23,0,0,0,.12-.26.58.58,0,0,0,0-.14l0-.23c.18-1.2.33-2.4.57-3.6a.33.33,0,0,1,.4-.26A.32.32,0,0,1,16.48,19.62Z"/><path class="cls-2" d="M13.67,19.47c0,1,.06,2,.06,3v.75a2,2,0,0,1-.21.94,1.86,1.86,0,0,1-3.33,0,2,2,0,0,1-.21-.94v-.75c0-1,0-2,.06-3a.34.34,0,0,1,.35-.32.33.33,0,0,1,.31.3c.1,1,.18,2,.23,3l.05.74a1,1,0,0,0,.11.5.86.86,0,0,0,.77.45.85.85,0,0,0,.76-.45,1.08,1.08,0,0,0,.12-.5l0-.74c.05-1,.13-2,.23-3a.33.33,0,0,1,.66,0Z"/></svg>
