<svg xmlns="http://www.w3.org/2000/svg" width="949" height="223">
         <defs>
            <style type="text/css">
    @namespace "http://www.w3.org/2000/svg";
    .line                 {fill: none; stroke: #00183A; stroke-width: 1;}
    .bold-line            {stroke: #000914; shape-rendering: crispEdges; stroke-width: 2;}
    .thin-line            {stroke: #000D1F; shape-rendering: crispEdges}
    .filled               {fill: #00183A; stroke: none;}
    text.terminal         {font-family: Verdana, Sans-serif;
                            font-size: 12px;
                            fill: #000914;
                            font-weight: bold;
                          }
    text.nonterminal      {font-family: Verdana, Sans-serif;
                            font-size: 12px;
                            fill: #000B1A;
                            font-weight: normal;
                          }
    text.regexp           {font-family: Verdana, Sans-serif;
                            font-size: 12px;
                            fill: #000D1F;
                            font-weight: normal;
                          }
    rect, circle, polygon {fill: #00183A; stroke: #00183A;}
    rect.terminal         {fill: #7FB5FF; stroke: #00183A; stroke-width: 1;}
    rect.nonterminal      {fill: #BAD6FF; stroke: #00183A; stroke-width: 1;}
    rect.text             {fill: none; stroke: none;}
    polygon.regexp        {fill: #D7E8FF; stroke: #00183A; stroke-width: 1;}
  </style>
         </defs>
         <polygon points="9 61 1 57 1 65"/>
         <polygon points="17 61 9 57 9 65"/>
         <rect x="31" y="47" width="72" height="32" rx="10"/>
         <rect x="29" y="45" width="72" height="32" class="terminal" rx="10"/>
         <text class="terminal" x="39" y="65">CREATE</text>
         <rect x="123" y="47" width="48" height="32" rx="10"/>
         <rect x="121" y="45" width="48" height="32" class="terminal" rx="10"/>
         <text class="terminal" x="131" y="65">UDF</text>
         <rect x="211" y="79" width="34" height="32" rx="10"/>
         <rect x="209" y="77" width="34" height="32" class="terminal" rx="10"/>
         <text class="terminal" x="219" y="97">IF</text>
         <rect x="265" y="79" width="48" height="32" rx="10"/>
         <rect x="263" y="77" width="48" height="32" class="terminal" rx="10"/>
         <text class="terminal" x="273" y="97">NOT</text>
         <rect x="333" y="79" width="70" height="32" rx="10"/>
         <rect x="331" y="77" width="70" height="32" class="terminal" rx="10"/>
         <text class="terminal" x="341" y="97">EXISTS</text><a xmlns:xlink="http://www.w3.org/1999/xlink" xlink:href="#udfName" xlink:title="udfName">
            <rect x="443" y="47" width="76" height="32"/>
            <rect x="441" y="45" width="76" height="32" class="nonterminal"/>
            <text class="nonterminal" x="451" y="65">udfName</text></a><rect x="539" y="47" width="64" height="32" rx="10"/>
         <rect x="537" y="45" width="64" height="32" class="terminal" rx="10"/>
         <text class="terminal" x="547" y="65">INPUT</text>
         <rect x="623" y="47" width="26" height="32" rx="10"/>
         <rect x="621" y="45" width="26" height="32" class="terminal" rx="10"/>
         <text class="terminal" x="631" y="65">(</text><a xmlns:xlink="http://www.w3.org/1999/xlink" xlink:href="#udfInput" xlink:title="udfInput">
            <rect x="689" y="47" width="74" height="32"/>
            <rect x="687" y="45" width="74" height="32" class="nonterminal"/>
            <text class="nonterminal" x="697" y="65">udfInput</text></a><a xmlns:xlink="http://www.w3.org/1999/xlink" xlink:href="#dataType" xlink:title="dataType">
            <rect x="783" y="47" width="78" height="32"/>
            <rect x="781" y="45" width="78" height="32" class="nonterminal"/>
            <text class="nonterminal" x="791" y="65">dataType</text></a><rect x="689" y="3" width="24" height="32" rx="10"/>
         <rect x="687" y="1" width="24" height="32" class="terminal" rx="10"/>
         <text class="terminal" x="697" y="21">,</text>
         <rect x="901" y="47" width="26" height="32" rx="10"/>
         <rect x="899" y="45" width="26" height="32" class="terminal" rx="10"/>
         <text class="terminal" x="909" y="65">)</text>
         <rect x="185" y="189" width="76" height="32" rx="10"/>
         <rect x="183" y="187" width="76" height="32" class="terminal" rx="10"/>
         <text class="terminal" x="193" y="207">OUTPUT</text>
         <rect x="281" y="189" width="26" height="32" rx="10"/>
         <rect x="279" y="187" width="26" height="32" class="terminal" rx="10"/>
         <text class="terminal" x="289" y="207">(</text><a xmlns:xlink="http://www.w3.org/1999/xlink" xlink:href="#udfOutput" xlink:title="udfOutput">
            <rect x="347" y="189" width="84" height="32"/>
            <rect x="345" y="187" width="84" height="32" class="nonterminal"/>
            <text class="nonterminal" x="355" y="207">udfOutput</text></a><a xmlns:xlink="http://www.w3.org/1999/xlink" xlink:href="#dataType" xlink:title="dataType">
            <rect x="451" y="189" width="78" height="32"/>
            <rect x="449" y="187" width="78" height="32" class="nonterminal"/>
            <text class="nonterminal" x="459" y="207">dataType</text></a><rect x="347" y="145" width="24" height="32" rx="10"/>
         <rect x="345" y="143" width="24" height="32" class="terminal" rx="10"/>
         <text class="terminal" x="355" y="163">,</text>
         <rect x="569" y="189" width="26" height="32" rx="10"/>
         <rect x="567" y="187" width="26" height="32" class="terminal" rx="10"/>
         <text class="terminal" x="577" y="207">)</text>
         <rect x="615" y="189" width="54" height="32" rx="10"/>
         <rect x="613" y="187" width="54" height="32" class="terminal" rx="10"/>
         <text class="terminal" x="623" y="207">TYPE</text><a xmlns:xlink="http://www.w3.org/1999/xlink" xlink:href="#udfType" xlink:title="udfType">
            <rect x="689" y="189" width="70" height="32"/>
            <rect x="687" y="187" width="70" height="32" class="nonterminal"/>
            <text class="nonterminal" x="697" y="207">udfType</text></a><rect x="779" y="189" width="54" height="32" rx="10"/>
         <rect x="777" y="187" width="54" height="32" class="terminal" rx="10"/>
         <text class="terminal" x="787" y="207">IMPL</text><a xmlns:xlink="http://www.w3.org/1999/xlink" xlink:href="#udfImpl" xlink:title="udfImpl">
            <rect x="853" y="189" width="68" height="32"/>
            <rect x="851" y="187" width="68" height="32" class="nonterminal"/>
            <text class="nonterminal" x="861" y="207">udfImpl</text></a><path xmlns:svg="http://www.w3.org/2000/svg" class="line" d="m17 61 h2 m0 0 h10 m72 0 h10 m0 0 h10 m48 0 h10 m20 0 h10 m0 0 h202 m-232 0 h20 m212 0 h20 m-252 0 q10 0 10 10 m232 0 q0 -10 10 -10 m-242 10 v12 m232 0 v-12 m-232 12 q0 10 10 10 m212 0 q10 0 10 -10 m-222 10 h10 m34 0 h10 m0 0 h10 m48 0 h10 m0 0 h10 m70 0 h10 m20 -32 h10 m76 0 h10 m0 0 h10 m64 0 h10 m0 0 h10 m26 0 h10 m20 0 h10 m74 0 h10 m0 0 h10 m78 0 h10 m-212 0 l20 0 m-1 0 q-9 0 -9 -10 l0 -24 q0 -10 10 -10 m192 44 l20 0 m-20 0 q10 0 10 -10 l0 -24 q0 -10 -10 -10 m-192 0 h10 m24 0 h10 m0 0 h148 m20 44 h10 m26 0 h10 m2 0 l2 0 m2 0 l2 0 m2 0 l2 0 m-786 142 l2 0 m2 0 l2 0 m2 0 l2 0 m2 0 h10 m76 0 h10 m0 0 h10 m26 0 h10 m20 0 h10 m84 0 h10 m0 0 h10 m78 0 h10 m-222 0 l20 0 m-1 0 q-9 0 -9 -10 l0 -24 q0 -10 10 -10 m202 44 l20 0 m-20 0 q10 0 10 -10 l0 -24 q0 -10 -10 -10 m-202 0 h10 m24 0 h10 m0 0 h158 m20 44 h10 m26 0 h10 m0 0 h10 m54 0 h10 m0 0 h10 m70 0 h10 m0 0 h10 m54 0 h10 m0 0 h10 m68 0 h10 m3 0 h-3"/>
         <polygon points="939 203 947 199 947 207"/>
         <polygon points="939 203 931 199 931 207"/></svg>
