<svg xmlns="http://www.w3.org/2000/svg" width="1361" height="311">
         <defs>
            <style type="text/css">
    @namespace "http://www.w3.org/2000/svg";
    .line                 {fill: none; stroke: #00183A; stroke-width: 1;}
    .bold-line            {stroke: #000914; shape-rendering: crispEdges; stroke-width: 2;}
    .thin-line            {stroke: #000D1F; shape-rendering: crispEdges}
    .filled               {fill: #00183A; stroke: none;}
    text.terminal         {font-family: Verdana, Sans-serif;
                            font-size: 12px;
                            fill: #000914;
                            font-weight: bold;
                          }
    text.nonterminal      {font-family: Verdana, Sans-serif;
                            font-size: 12px;
                            fill: #000B1A;
                            font-weight: normal;
                          }
    text.regexp           {font-family: Verdana, Sans-serif;
                            font-size: 12px;
                            fill: #000D1F;
                            font-weight: normal;
                          }
    rect, circle, polygon {fill: #00183A; stroke: #00183A;}
    rect.terminal         {fill: #7FB5FF; stroke: #00183A; stroke-width: 1;}
    rect.nonterminal      {fill: #BAD6FF; stroke: #00183A; stroke-width: 1;}
    rect.text             {fill: none; stroke: none;}
    polygon.regexp        {fill: #D7E8FF; stroke: #00183A; stroke-width: 1;}
  </style>
         </defs>
         <polygon points="11 17 3 13 3 21"/>
         <polygon points="19 17 11 13 11 21"/>
         <rect x="33" y="3" width="60" height="32" rx="10"/>
         <rect x="31" y="1" width="60" height="32" class="terminal" rx="10"/>
         <text class="terminal" x="41" y="21">FROM</text><a xmlns:xlink="http://www.w3.org/1999/xlink" xlink:href="#tableName" xlink:title="tableName">
            <rect x="133" y="3" width="88" height="32"/>
            <rect x="131" y="1" width="88" height="32" class="nonterminal"/>
            <text class="nonterminal" x="141" y="21">tableName</text></a><rect x="133" y="47" width="26" height="32" rx="10"/>
         <rect x="131" y="45" width="26" height="32" class="terminal" rx="10"/>
         <text class="terminal" x="141" y="65">(</text><a xmlns:xlink="http://www.w3.org/1999/xlink" xlink:href="#selectStatement" xlink:title="selectStatement">
            <rect x="179" y="47" width="124" height="32"/>
            <rect x="177" y="45" width="124" height="32" class="nonterminal"/>
            <text class="nonterminal" x="187" y="65">selectStatement</text></a><rect x="323" y="47" width="26" height="32" rx="10"/>
         <rect x="321" y="45" width="26" height="32" class="terminal" rx="10"/>
         <text class="terminal" x="331" y="65">)</text>
         <rect x="409" y="35" width="38" height="32" rx="10"/>
         <rect x="407" y="33" width="38" height="32" class="terminal" rx="10"/>
         <text class="terminal" x="417" y="53">AS</text><a xmlns:xlink="http://www.w3.org/1999/xlink" xlink:href="#alias" xlink:title="alias">
            <rect x="467" y="35" width="50" height="32"/>
            <rect x="465" y="33" width="50" height="32" class="nonterminal"/>
            <text class="nonterminal" x="475" y="53">alias</text></a><rect x="577" y="35" width="74" height="32" rx="10"/>
         <rect x="575" y="33" width="74" height="32" class="terminal" rx="10"/>
         <text class="terminal" x="585" y="53">SAMPLE</text><a xmlns:xlink="http://www.w3.org/1999/xlink" xlink:href="#decimal" xlink:title="decimal">
            <rect x="671" y="35" width="68" height="32"/>
            <rect x="669" y="33" width="68" height="32" class="nonterminal"/>
            <text class="nonterminal" x="679" y="53">decimal</text></a><rect x="85" y="173" width="54" height="32" rx="10"/>
         <rect x="83" y="171" width="54" height="32" class="terminal" rx="10"/>
         <text class="terminal" x="93" y="191">JOIN</text><a xmlns:xlink="http://www.w3.org/1999/xlink" xlink:href="#tableName" xlink:title="tableName">
            <rect x="179" y="173" width="88" height="32"/>
            <rect x="177" y="171" width="88" height="32" class="nonterminal"/>
            <text class="nonterminal" x="187" y="191">tableName</text></a><rect x="179" y="217" width="26" height="32" rx="10"/>
         <rect x="177" y="215" width="26" height="32" class="terminal" rx="10"/>
         <text class="terminal" x="187" y="235">(</text><a xmlns:xlink="http://www.w3.org/1999/xlink" xlink:href="#selectStatement" xlink:title="selectStatement">
            <rect x="225" y="217" width="124" height="32"/>
            <rect x="223" y="215" width="124" height="32" class="nonterminal"/>
            <text class="nonterminal" x="233" y="235">selectStatement</text></a><rect x="369" y="217" width="26" height="32" rx="10"/>
         <rect x="367" y="215" width="26" height="32" class="terminal" rx="10"/>
         <text class="terminal" x="377" y="235">)</text>
         <rect x="85" y="261" width="80" height="32" rx="10"/>
         <rect x="83" y="259" width="80" height="32" class="terminal" rx="10"/>
         <text class="terminal" x="93" y="279">LATERAL</text><a xmlns:xlink="http://www.w3.org/1999/xlink" xlink:href="#functionCall" xlink:title="functionCall">
            <rect x="185" y="261" width="94" height="32"/>
            <rect x="183" y="259" width="94" height="32" class="nonterminal"/>
            <text class="nonterminal" x="193" y="279">functionCall</text></a><rect x="475" y="205" width="38" height="32" rx="10"/>
         <rect x="473" y="203" width="38" height="32" class="terminal" rx="10"/>
         <text class="terminal" x="483" y="223">AS</text><a xmlns:xlink="http://www.w3.org/1999/xlink" xlink:href="#alias" xlink:title="alias">
            <rect x="533" y="205" width="50" height="32"/>
            <rect x="531" y="203" width="50" height="32" class="nonterminal"/>
            <text class="nonterminal" x="541" y="223">alias</text></a><rect x="643" y="205" width="74" height="32" rx="10"/>
         <rect x="641" y="203" width="74" height="32" class="terminal" rx="10"/>
         <text class="terminal" x="651" y="223">SAMPLE</text><a xmlns:xlink="http://www.w3.org/1999/xlink" xlink:href="#decimal" xlink:title="decimal">
            <rect x="737" y="205" width="68" height="32"/>
            <rect x="735" y="203" width="68" height="32" class="nonterminal"/>
            <text class="nonterminal" x="745" y="223">decimal</text></a><a xmlns:xlink="http://www.w3.org/1999/xlink" xlink:href="#ON" xlink:title="ON">
            <rect x="865" y="173" width="38" height="32"/>
            <rect x="863" y="171" width="38" height="32" class="nonterminal"/>
            <text class="nonterminal" x="873" y="191">ON</text></a><a xmlns:xlink="http://www.w3.org/1999/xlink" xlink:href="#columnName" xlink:title="columnName">
            <rect x="943" y="173" width="102" height="32"/>
            <rect x="941" y="171" width="102" height="32" class="nonterminal"/>
            <text class="nonterminal" x="951" y="191">columnName</text></a><rect x="1065" y="173" width="30" height="32" rx="10"/>
         <rect x="1063" y="171" width="30" height="32" class="terminal" rx="10"/>
         <text class="terminal" x="1073" y="191">=</text><a xmlns:xlink="http://www.w3.org/1999/xlink" xlink:href="#otherColumnName" xlink:title="otherColumnName">
            <rect x="1115" y="173" width="138" height="32"/>
            <rect x="1113" y="171" width="138" height="32" class="nonterminal"/>
            <text class="nonterminal" x="1123" y="191">otherColumnName</text></a><rect x="943" y="129" width="48" height="32" rx="10"/>
         <rect x="941" y="127" width="48" height="32" class="terminal" rx="10"/>
         <text class="terminal" x="951" y="147">AND</text>
         <path xmlns:svg="http://www.w3.org/2000/svg" class="line" d="m19 17 h2 m0 0 h10 m60 0 h10 m20 0 h10 m88 0 h10 m0 0 h128 m-256 0 h20 m236 0 h20 m-276 0 q10 0 10 10 m256 0 q0 -10 10 -10 m-266 10 v24 m256 0 v-24 m-256 24 q0 10 10 10 m236 0 q10 0 10 -10 m-246 10 h10 m26 0 h10 m0 0 h10 m124 0 h10 m0 0 h10 m26 0 h10 m40 -44 h10 m0 0 h118 m-148 0 h20 m128 0 h20 m-168 0 q10 0 10 10 m148 0 q0 -10 10 -10 m-158 10 v12 m148 0 v-12 m-148 12 q0 10 10 10 m128 0 q10 0 10 -10 m-138 10 h10 m38 0 h10 m0 0 h10 m50 0 h10 m40 -32 h10 m0 0 h172 m-202 0 h20 m182 0 h20 m-222 0 q10 0 10 10 m202 0 q0 -10 10 -10 m-212 10 v12 m202 0 v-12 m-202 12 q0 10 10 10 m182 0 q10 0 10 -10 m-192 10 h10 m74 0 h10 m0 0 h10 m68 0 h10 m22 -32 l2 0 m2 0 l2 0 m2 0 l2 0 m-778 170 l2 0 m2 0 l2 0 m2 0 l2 0 m62 0 h10 m54 0 h10 m20 0 h10 m88 0 h10 m0 0 h128 m-256 0 h20 m236 0 h20 m-276 0 q10 0 10 10 m256 0 q0 -10 10 -10 m-266 10 v24 m256 0 v-24 m-256 24 q0 10 10 10 m236 0 q10 0 10 -10 m-246 10 h10 m26 0 h10 m0 0 h10 m124 0 h10 m0 0 h10 m26 0 h10 m-350 -44 h20 m350 0 h20 m-390 0 q10 0 10 10 m370 0 q0 -10 10 -10 m-380 10 v68 m370 0 v-68 m-370 68 q0 10 10 10 m350 0 q10 0 10 -10 m-360 10 h10 m80 0 h10 m0 0 h10 m94 0 h10 m0 0 h136 m40 -88 h10 m0 0 h118 m-148 0 h20 m128 0 h20 m-168 0 q10 0 10 10 m148 0 q0 -10 10 -10 m-158 10 v12 m148 0 v-12 m-148 12 q0 10 10 10 m128 0 q10 0 10 -10 m-138 10 h10 m38 0 h10 m0 0 h10 m50 0 h10 m40 -32 h10 m0 0 h172 m-202 0 h20 m182 0 h20 m-222 0 q10 0 10 10 m202 0 q0 -10 10 -10 m-212 10 v12 m202 0 v-12 m-202 12 q0 10 10 10 m182 0 q10 0 10 -10 m-192 10 h10 m74 0 h10 m0 0 h10 m68 0 h10 m40 -32 h10 m38 0 h10 m20 0 h10 m102 0 h10 m0 0 h10 m30 0 h10 m0 0 h10 m138 0 h10 m-350 0 l20 0 m-1 0 q-9 0 -9 -10 l0 -24 q0 -10 10 -10 m330 44 l20 0 m-20 0 q10 0 10 -10 l0 -24 q0 -10 -10 -10 m-330 0 h10 m48 0 h10 m0 0 h262 m-428 44 h20 m428 0 h20 m-468 0 q10 0 10 10 m448 0 q0 -10 10 -10 m-458 10 v14 m448 0 v-14 m-448 14 q0 10 10 10 m428 0 q10 0 10 -10 m-438 10 h10 m0 0 h418 m-1248 -34 l20 0 m-1 0 q-9 0 -9 -10 l0 -56 q0 -10 10 -10 m1248 76 l20 0 m-20 0 q10 0 10 -10 l0 -56 q0 -10 -10 -10 m-1248 0 h10 m0 0 h1238 m-1288 76 h20 m1288 0 h20 m-1328 0 q10 0 10 10 m1308 0 q0 -10 10 -10 m-1318 10 v102 m1308 0 v-102 m-1308 102 q0 10 10 10 m1288 0 q10 0 10 -10 m-1298 10 h10 m0 0 h1278 m23 -122 h-3"/>
         <polygon points="1351 187 1359 183 1359 191"/>
         <polygon points="1351 187 1343 183 1343 191"/></svg>
