<svg xmlns="http://www.w3.org/2000/svg" width="2030" height="460" overflow="hidden"><text fill="#F56522" font-family="Work Sans,Work Sans_MSFontService,sans-serif" font-size="477" font-weight="700" transform="translate(525.32 408)">Eva<tspan x="844.479" y="0" fill="#000">DB</tspan></text><path fill="#F46523" fill-rule="evenodd" d="M548.46 4.327 441.45 40.851c-9.56-3.205-27.86-6.011-55.06 3.048-36.352 12.385-46.387 41.488-71.407 78.738-44.82-47.557-114.67-93.243-170.297-111.949-5.638-1.857-12.091.948-14.411 6.266-.875 2.004-1.065 4.178-.543 6.215 8.587 28.289 20.714 55.397 36.144 80.794 49.398 10.056 96.431 26.169 127.081 48.41a245.023 245.023 0 0 1-9.715 10.718c-58.552-41.34-187.137-64.482-268.628-55.134-6.081.723-10.643 5.838-10.191 11.424a9.257 9.257 0 0 0 2.397 5.494c35.376 37.242 122.271 90.888 194.89 113.647L76.363 449.86c-1.602 3.05-.293 6.59 2.924 7.9 2.252.92 4.949.53 6.927-1 42.419-39.35 118.554-104.07 187.394-132.339C405.89 270.118 457.88 172.311 450.23 56.764l99.48-49.392c.86-.521 1.15-1.57.63-2.344-.39-.579-1.14-.858-1.88-.701Z"/></svg>