<svg xmlns="http://www.w3.org/2000/svg" width="925" height="113">
         <defs>
            <style type="text/css">
    @namespace "http://www.w3.org/2000/svg";
    .line                 {fill: none; stroke: #00183A; stroke-width: 1;}
    .bold-line            {stroke: #000914; shape-rendering: crispEdges; stroke-width: 2;}
    .thin-line            {stroke: #000D1F; shape-rendering: crispEdges}
    .filled               {fill: #00183A; stroke: none;}
    text.terminal         {font-family: Verdana, Sans-serif;
                            font-size: 12px;
                            fill: #000914;
                            font-weight: bold;
                          }
    text.nonterminal      {font-family: Verdana, Sans-serif;
                            font-size: 12px;
                            fill: #000B1A;
                            font-weight: normal;
                          }
    text.regexp           {font-family: Verdana, Sans-serif;
                            font-size: 12px;
                            fill: #000D1F;
                            font-weight: normal;
                          }
    rect, circle, polygon {fill: #00183A; stroke: #00183A;}
    rect.terminal         {fill: #7FB5FF; stroke: #00183A; stroke-width: 1;}
    rect.nonterminal      {fill: #BAD6FF; stroke: #00183A; stroke-width: 1;}
    rect.text             {fill: none; stroke: none;}
    polygon.regexp        {fill: #D7E8FF; stroke: #00183A; stroke-width: 1;}
  </style>
         </defs>
         <polygon points="9 61 1 57 1 65"/>
         <polygon points="17 61 9 57 9 65"/>
         <rect x="31" y="47" width="72" height="32" rx="10"/>
         <rect x="29" y="45" width="72" height="32" class="terminal" rx="10"/>
         <text class="terminal" x="39" y="65">CREATE</text>
         <rect x="123" y="47" width="62" height="32" rx="10"/>
         <rect x="121" y="45" width="62" height="32" class="terminal" rx="10"/>
         <text class="terminal" x="131" y="65">TABLE</text>
         <rect x="225" y="79" width="34" height="32" rx="10"/>
         <rect x="223" y="77" width="34" height="32" class="terminal" rx="10"/>
         <text class="terminal" x="233" y="97">IF</text>
         <rect x="279" y="79" width="48" height="32" rx="10"/>
         <rect x="277" y="77" width="48" height="32" class="terminal" rx="10"/>
         <text class="terminal" x="287" y="97">NOT</text>
         <rect x="347" y="79" width="70" height="32" rx="10"/>
         <rect x="345" y="77" width="70" height="32" class="terminal" rx="10"/>
         <text class="terminal" x="355" y="97">EXISTS</text><a xmlns:xlink="http://www.w3.org/1999/xlink" xlink:href="#tableName" xlink:title="tableName">
            <rect x="457" y="47" width="88" height="32"/>
            <rect x="455" y="45" width="88" height="32" class="nonterminal"/>
            <text class="nonterminal" x="465" y="65">tableName</text></a><rect x="565" y="47" width="26" height="32" rx="10"/>
         <rect x="563" y="45" width="26" height="32" class="terminal" rx="10"/>
         <text class="terminal" x="573" y="65">(</text><a xmlns:xlink="http://www.w3.org/1999/xlink" xlink:href="#columnName" xlink:title="columnName">
            <rect x="631" y="47" width="102" height="32"/>
            <rect x="629" y="45" width="102" height="32" class="nonterminal"/>
            <text class="nonterminal" x="639" y="65">columnName</text></a><a xmlns:xlink="http://www.w3.org/1999/xlink" xlink:href="#dataType" xlink:title="dataType">
            <rect x="753" y="47" width="78" height="32"/>
            <rect x="751" y="45" width="78" height="32" class="nonterminal"/>
            <text class="nonterminal" x="761" y="65">dataType</text></a><rect x="631" y="3" width="24" height="32" rx="10"/>
         <rect x="629" y="1" width="24" height="32" class="terminal" rx="10"/>
         <text class="terminal" x="639" y="21">,</text>
         <rect x="871" y="47" width="26" height="32" rx="10"/>
         <rect x="869" y="45" width="26" height="32" class="terminal" rx="10"/>
         <text class="terminal" x="879" y="65">)</text>
         <path xmlns:svg="http://www.w3.org/2000/svg" class="line" d="m17 61 h2 m0 0 h10 m72 0 h10 m0 0 h10 m62 0 h10 m20 0 h10 m0 0 h202 m-232 0 h20 m212 0 h20 m-252 0 q10 0 10 10 m232 0 q0 -10 10 -10 m-242 10 v12 m232 0 v-12 m-232 12 q0 10 10 10 m212 0 q10 0 10 -10 m-222 10 h10 m34 0 h10 m0 0 h10 m48 0 h10 m0 0 h10 m70 0 h10 m20 -32 h10 m88 0 h10 m0 0 h10 m26 0 h10 m20 0 h10 m102 0 h10 m0 0 h10 m78 0 h10 m-240 0 l20 0 m-1 0 q-9 0 -9 -10 l0 -24 q0 -10 10 -10 m220 44 l20 0 m-20 0 q10 0 10 -10 l0 -24 q0 -10 -10 -10 m-220 0 h10 m24 0 h10 m0 0 h176 m20 44 h10 m26 0 h10 m3 0 h-3"/>
         <polygon points="915 61 923 57 923 65"/>
         <polygon points="915 61 907 57 907 65"/></svg>
