<svg xmlns="http://www.w3.org/2000/svg" width="913" height="179">
         <defs>
            <style type="text/css">
    @namespace "http://www.w3.org/2000/svg";
    .line                 {fill: none; stroke: #00183A; stroke-width: 1;}
    .bold-line            {stroke: #000914; shape-rendering: crispEdges; stroke-width: 2;}
    .thin-line            {stroke: #000D1F; shape-rendering: crispEdges}
    .filled               {fill: #00183A; stroke: none;}
    text.terminal         {font-family: Verdana, Sans-serif;
                            font-size: 12px;
                            fill: #000914;
                            font-weight: bold;
                          }
    text.nonterminal      {font-family: Verdana, Sans-serif;
                            font-size: 12px;
                            fill: #000B1A;
                            font-weight: normal;
                          }
    text.regexp           {font-family: Verdana, Sans-serif;
                            font-size: 12px;
                            fill: #000D1F;
                            font-weight: normal;
                          }
    rect, circle, polygon {fill: #00183A; stroke: #00183A;}
    rect.terminal         {fill: #7FB5FF; stroke: #00183A; stroke-width: 1;}
    rect.nonterminal      {fill: #BAD6FF; stroke: #00183A; stroke-width: 1;}
    rect.text             {fill: none; stroke: none;}
    polygon.regexp        {fill: #D7E8FF; stroke: #00183A; stroke-width: 1;}
  </style>
         </defs>
         <polygon points="9 61 1 57 1 65"/>
         <polygon points="17 61 9 57 9 65"/>
         <rect x="31" y="47" width="72" height="32" rx="10"/>
         <rect x="29" y="45" width="72" height="32" class="terminal" rx="10"/>
         <text class="terminal" x="39" y="65">CREATE</text>
         <rect x="123" y="47" width="122" height="32" rx="10"/>
         <rect x="121" y="45" width="122" height="32" class="terminal" rx="10"/>
         <text class="terminal" x="131" y="65">MATERIALIZED</text>
         <rect x="265" y="47" width="58" height="32" rx="10"/>
         <rect x="263" y="45" width="58" height="32" class="terminal" rx="10"/>
         <text class="terminal" x="273" y="65">VIEW</text>
         <rect x="363" y="79" width="34" height="32" rx="10"/>
         <rect x="361" y="77" width="34" height="32" class="terminal" rx="10"/>
         <text class="terminal" x="371" y="97">IF</text>
         <rect x="417" y="79" width="48" height="32" rx="10"/>
         <rect x="415" y="77" width="48" height="32" class="terminal" rx="10"/>
         <text class="terminal" x="425" y="97">NOT</text>
         <rect x="485" y="79" width="70" height="32" rx="10"/>
         <rect x="483" y="77" width="70" height="32" class="terminal" rx="10"/>
         <text class="terminal" x="493" y="97">EXISTS</text><a xmlns:xlink="http://www.w3.org/1999/xlink" xlink:href="#tableName" xlink:title="tableName">
            <rect x="595" y="47" width="88" height="32"/>
            <rect x="593" y="45" width="88" height="32" class="nonterminal"/>
            <text class="nonterminal" x="603" y="65">tableName</text></a><rect x="703" y="47" width="26" height="32" rx="10"/>
         <rect x="701" y="45" width="26" height="32" class="terminal" rx="10"/>
         <text class="terminal" x="711" y="65">(</text><a xmlns:xlink="http://www.w3.org/1999/xlink" xlink:href="#columnName" xlink:title="columnName">
            <rect x="769" y="47" width="102" height="32"/>
            <rect x="767" y="45" width="102" height="32" class="nonterminal"/>
            <text class="nonterminal" x="777" y="65">columnName</text></a><rect x="769" y="3" width="24" height="32" rx="10"/>
         <rect x="767" y="1" width="24" height="32" class="terminal" rx="10"/>
         <text class="terminal" x="777" y="21">,</text>
         <rect x="657" y="145" width="26" height="32" rx="10"/>
         <rect x="655" y="143" width="26" height="32" class="terminal" rx="10"/>
         <text class="terminal" x="665" y="163">)</text>
         <rect x="703" y="145" width="38" height="32" rx="10"/>
         <rect x="701" y="143" width="38" height="32" class="terminal" rx="10"/>
         <text class="terminal" x="711" y="163">AS</text><a xmlns:xlink="http://www.w3.org/1999/xlink" xlink:href="#selectStatement" xlink:title="selectStatement">
            <rect x="761" y="145" width="124" height="32"/>
            <rect x="759" y="143" width="124" height="32" class="nonterminal"/>
            <text class="nonterminal" x="769" y="163">selectStatement</text></a><path xmlns:svg="http://www.w3.org/2000/svg" class="line" d="m17 61 h2 m0 0 h10 m72 0 h10 m0 0 h10 m122 0 h10 m0 0 h10 m58 0 h10 m20 0 h10 m0 0 h202 m-232 0 h20 m212 0 h20 m-252 0 q10 0 10 10 m232 0 q0 -10 10 -10 m-242 10 v12 m232 0 v-12 m-232 12 q0 10 10 10 m212 0 q10 0 10 -10 m-222 10 h10 m34 0 h10 m0 0 h10 m48 0 h10 m0 0 h10 m70 0 h10 m20 -32 h10 m88 0 h10 m0 0 h10 m26 0 h10 m20 0 h10 m102 0 h10 m-142 0 l20 0 m-1 0 q-9 0 -9 -10 l0 -24 q0 -10 10 -10 m122 44 l20 0 m-20 0 q10 0 10 -10 l0 -24 q0 -10 -10 -10 m-122 0 h10 m24 0 h10 m0 0 h78 m22 44 l2 0 m2 0 l2 0 m2 0 l2 0 m-278 98 l2 0 m2 0 l2 0 m2 0 l2 0 m2 0 h10 m26 0 h10 m0 0 h10 m38 0 h10 m0 0 h10 m124 0 h10 m3 0 h-3"/>
         <polygon points="903 159 911 155 911 163"/>
         <polygon points="903 159 895 155 895 163"/></svg>
