<svg xmlns="http://www.w3.org/2000/svg" width="889" height="211">
         <defs>
            <style type="text/css">
    @namespace "http://www.w3.org/2000/svg";
    .line                 {fill: none; stroke: #00183A; stroke-width: 1;}
    .bold-line            {stroke: #000914; shape-rendering: crispEdges; stroke-width: 2;}
    .thin-line            {stroke: #000D1F; shape-rendering: crispEdges}
    .filled               {fill: #00183A; stroke: none;}
    text.terminal         {font-family: Verdana, Sans-serif;
                            font-size: 12px;
                            fill: #000914;
                            font-weight: bold;
                          }
    text.nonterminal      {font-family: Verdana, Sans-serif;
                            font-size: 12px;
                            fill: #000B1A;
                            font-weight: normal;
                          }
    text.regexp           {font-family: Verdana, Sans-serif;
                            font-size: 12px;
                            fill: #000D1F;
                            font-weight: normal;
                          }
    rect, circle, polygon {fill: #00183A; stroke: #00183A;}
    rect.terminal         {fill: #7FB5FF; stroke: #00183A; stroke-width: 1;}
    rect.nonterminal      {fill: #BAD6FF; stroke: #00183A; stroke-width: 1;}
    rect.text             {fill: none; stroke: none;}
    polygon.regexp        {fill: #D7E8FF; stroke: #00183A; stroke-width: 1;}
  </style>
         </defs>
         <polygon points="9 61 1 57 1 65"/>
         <polygon points="17 61 9 57 9 65"/>
         <rect x="31" y="47" width="70" height="32" rx="10"/>
         <rect x="29" y="45" width="70" height="32" class="terminal" rx="10"/>
         <text class="terminal" x="39" y="65">SELECT</text><a xmlns:xlink="http://www.w3.org/1999/xlink" xlink:href="#columnName" xlink:title="columnName">
            <rect x="161" y="47" width="102" height="32"/>
            <rect x="159" y="45" width="102" height="32" class="nonterminal"/>
            <text class="nonterminal" x="169" y="65">columnName</text></a><a xmlns:xlink="http://www.w3.org/1999/xlink" xlink:href="#functionCall" xlink:title="functionCall">
            <rect x="161" y="91" width="94" height="32"/>
            <rect x="159" y="89" width="94" height="32" class="nonterminal"/>
            <text class="nonterminal" x="169" y="109">functionCall</text></a><rect x="323" y="79" width="38" height="32" rx="10"/>
         <rect x="321" y="77" width="38" height="32" class="terminal" rx="10"/>
         <text class="terminal" x="331" y="97">AS</text><a xmlns:xlink="http://www.w3.org/1999/xlink" xlink:href="#columnAlias" xlink:title="columnAlias">
            <rect x="381" y="79" width="94" height="32"/>
            <rect x="379" y="77" width="94" height="32" class="nonterminal"/>
            <text class="nonterminal" x="389" y="97">columnAlias</text></a><rect x="141" y="3" width="24" height="32" rx="10"/>
         <rect x="139" y="1" width="24" height="32" class="terminal" rx="10"/>
         <text class="terminal" x="149" y="21">,</text><a xmlns:xlink="http://www.w3.org/1999/xlink" xlink:href="#fromClause" xlink:title="fromClause">
            <rect x="535" y="47" width="92" height="32"/>
            <rect x="533" y="45" width="92" height="32" class="nonterminal"/>
            <text class="nonterminal" x="543" y="65">fromClause</text></a><rect x="667" y="79" width="70" height="32" rx="10"/>
         <rect x="665" y="77" width="70" height="32" class="terminal" rx="10"/>
         <text class="terminal" x="675" y="97">WHERE</text><a xmlns:xlink="http://www.w3.org/1999/xlink" xlink:href="#expression" xlink:title="expression">
            <rect x="757" y="79" width="90" height="32"/>
            <rect x="755" y="77" width="90" height="32" class="nonterminal"/>
            <text class="nonterminal" x="765" y="97">expression</text></a><a xmlns:xlink="http://www.w3.org/1999/xlink" xlink:href="#orderByClause" xlink:title="orderByClause">
            <rect x="579" y="177" width="112" height="32"/>
            <rect x="577" y="175" width="112" height="32" class="nonterminal"/>
            <text class="nonterminal" x="587" y="195">orderByClause</text></a><a xmlns:xlink="http://www.w3.org/1999/xlink" xlink:href="#limitClause" xlink:title="limitClause">
            <rect x="751" y="177" width="90" height="32"/>
            <rect x="749" y="175" width="90" height="32" class="nonterminal"/>
            <text class="nonterminal" x="759" y="195">limitClause</text></a><path xmlns:svg="http://www.w3.org/2000/svg" class="line" d="m17 61 h2 m0 0 h10 m70 0 h10 m40 0 h10 m102 0 h10 m-142 0 h20 m122 0 h20 m-162 0 q10 0 10 10 m142 0 q0 -10 10 -10 m-152 10 v24 m142 0 v-24 m-142 24 q0 10 10 10 m122 0 q10 0 10 -10 m-132 10 h10 m94 0 h10 m0 0 h8 m40 -44 h10 m0 0 h162 m-192 0 h20 m172 0 h20 m-212 0 q10 0 10 10 m192 0 q0 -10 10 -10 m-202 10 v12 m192 0 v-12 m-192 12 q0 10 10 10 m172 0 q10 0 10 -10 m-182 10 h10 m38 0 h10 m0 0 h10 m94 0 h10 m-374 -32 l20 0 m-1 0 q-9 0 -9 -10 l0 -24 q0 -10 10 -10 m374 44 l20 0 m-20 0 q10 0 10 -10 l0 -24 q0 -10 -10 -10 m-374 0 h10 m24 0 h10 m0 0 h330 m20 44 h10 m92 0 h10 m20 0 h10 m0 0 h190 m-220 0 h20 m200 0 h20 m-240 0 q10 0 10 10 m220 0 q0 -10 10 -10 m-230 10 v12 m220 0 v-12 m-220 12 q0 10 10 10 m200 0 q10 0 10 -10 m-210 10 h10 m70 0 h10 m0 0 h10 m90 0 h10 m22 -32 l2 0 m2 0 l2 0 m2 0 l2 0 m-352 98 l2 0 m2 0 l2 0 m2 0 l2 0 m22 0 h10 m0 0 h122 m-152 0 h20 m132 0 h20 m-172 0 q10 0 10 10 m152 0 q0 -10 10 -10 m-162 10 v12 m152 0 v-12 m-152 12 q0 10 10 10 m132 0 q10 0 10 -10 m-142 10 h10 m112 0 h10 m40 -32 h10 m0 0 h100 m-130 0 h20 m110 0 h20 m-150 0 q10 0 10 10 m130 0 q0 -10 10 -10 m-140 10 v12 m130 0 v-12 m-130 12 q0 10 10 10 m110 0 q10 0 10 -10 m-120 10 h10 m90 0 h10 m23 -32 h-3"/>
         <polygon points="879 159 887 155 887 163"/>
         <polygon points="879 159 871 155 871 163"/></svg>
